<svg xmlns="http://www.w3.org/2000/svg" width="26.342" height="25.415" viewBox="0 0 26.342 25.415">
  <g id="add_to_cart" data-name="add to cart" transform="translate(0.063 -3.8)">
    <path id="Path_10" data-name="Path 10" d="M98.936,335.2a3.137,3.137,0,1,0,3.136,3.137A3.136,3.136,0,0,0,98.936,335.2Zm0,5.118a1.981,1.981,0,1,1,1.981-1.981A1.981,1.981,0,0,1,98.936,340.318Z" transform="translate(-90.326 -312.258)" fill="#4f97c4"/>
    <path id="Path_11" data-name="Path 11" d="M26.17,19.366a.586.586,0,0,0-.462-.231H20.746a4.59,4.59,0,0,1-.248,1.149h4.436l-2.49,8.243a1.723,1.723,0,0,1-1.658,1.23H8.68a1.729,1.729,0,0,1-1.7-1.432l-1.421-8.04H8.322a.7.7,0,0,1-.029-.1l-.139-1.045H5.347l-.416-2.322a3.459,3.459,0,0,0-2.807-2.8L.616,13.746a.578.578,0,1,0-.2,1.138l1.513.266a2.3,2.3,0,0,1,1.866,1.866L5.832,28.533a2.87,2.87,0,0,0,2.836,2.38H20.781a2.875,2.875,0,0,0,2.761-2.045l2.709-8.982A.593.593,0,0,0,26.17,19.366Z" transform="translate(0 -9.363)" fill="#4f97c4"/>
    <path id="Path_12" data-name="Path 12" d="M308.637,335.2a3.137,3.137,0,1,0,3.136,3.137A3.136,3.136,0,0,0,308.637,335.2Zm0,5.118a1.981,1.981,0,1,1,1.981-1.981A1.981,1.981,0,0,1,308.637,340.318Z" transform="translate(-287.913 -312.258)" fill="#4f97c4"/>
    <path id="Path_13" data-name="Path 13" d="M195.93,43.716h1.155v-2.83h2.83V39.73h-2.83V36.9H195.93v2.83H193.1v1.155h2.83Z" transform="translate(-182.006 -31.188)" fill="#4f97c4"/>
    <path id="Path_14" data-name="Path 14" d="M165.32,14.44A5.32,5.32,0,1,0,160,9.12,5.325,5.325,0,0,0,165.32,14.44Zm0-9.49a4.168,4.168,0,1,1-4.165,4.17A4.17,4.17,0,0,1,165.32,4.949Z" transform="translate(-150.818 0)" fill="#4f97c4"/>
  </g>
</svg>
