<svg id="cart" xmlns="http://www.w3.org/2000/svg" width="25.615" height="24.156" viewBox="0 0 25.615 24.156">
  <path id="Path_2" data-name="Path 2" d="M99,322.332a3.051,3.051,0,1,0,3.051,3.051A3.051,3.051,0,0,0,99,322.332Zm0,4.98a1.929,1.929,0,1,1,1.929-1.929A1.929,1.929,0,0,1,99,327.312Zm0,0" transform="translate(-90.572 -304.277)" fill="#fff"/>
  <path id="Path_3" data-name="Path 3" d="M25.055,5.631H5.254l-.4-2.26A3.37,3.37,0,0,0,2.119.645L.655.387a.561.561,0,1,0-.2,1.1l1.469.258A2.243,2.243,0,0,1,3.745,3.567l1.985,11.2a2.8,2.8,0,0,0,2.759,2.316H20.266a2.8,2.8,0,0,0,2.686-1.991l2.636-8.737a.586.586,0,0,0-.084-.5.568.568,0,0,0-.449-.224ZM21.881,14.76a1.671,1.671,0,0,1-1.609,1.195H8.5a1.674,1.674,0,0,1-1.654-1.391L5.456,6.747H24.3Zm0,0" transform="translate(0.004 -0.379)" fill="#fff"/>
  <path id="Path_4" data-name="Path 4" d="M309,322.332a3.051,3.051,0,1,0,3.051,3.051A3.051,3.051,0,0,0,309,322.332Zm0,4.98a1.929,1.929,0,1,1,1.929-1.929A1.929,1.929,0,0,1,309,327.312Zm0,0" transform="translate(-288.795 -304.277)" fill="#fff"/>
</svg>
