<svg id="heart" xmlns="http://www.w3.org/2000/svg" width="15.3" height="13.507" viewBox="0 0 15.3 13.507">
  <g id="Group_6" data-name="Group 6">
    <path id="Path_9" data-name="Path 9" d="M11.236,30a3.622,3.622,0,0,0-2.262.782A5.153,5.153,0,0,0,7.65,32.374a5.153,5.153,0,0,0-1.324-1.592A3.622,3.622,0,0,0,4.064,30,4.153,4.153,0,0,0,0,34.408c0,2.715,2.18,4.572,5.48,7.385.56.478,1.2,1.019,1.856,1.6a.478.478,0,0,0,.629,0c.66-.577,1.3-1.119,1.856-1.6,3.3-2.812,5.479-4.669,5.479-7.384A4.153,4.153,0,0,0,11.236,30Z" transform="translate(0 -30)" fill="#fff"/>
  </g>
</svg>
