<?xml version="1.0" encoding="utf-8"?>
<!-- Generator: Adobe Illustrator 20.1.0, SVG Export Plug-In . SVG Version: 6.00 Build 0)  -->
<svg version="1.1" id="Слой_1" xmlns="http://www.w3.org/2000/svg" xmlns:xlink="http://www.w3.org/1999/xlink" x="0px" y="0px"
	 viewBox="0 0 512 512" style="enable-background:new 0 0 512 512;" xml:space="preserve">
<style type="text/css">
	.st0{fill:#b71c1c;}
	.st1{fill:#ffc107;}
</style>
<path class="st0" d="M342.8,6.9c10.1,4.8,20,10.2,29.3,16.4c35.2,23.4,63.6,58.5,74.1,99.5s1.5,87.6-27.4,118.5
	c-19.2,20.6-50.4,33.5-76,21.6c-15.2-7.1-25-21.2-31-37.2l0,0c-1.6-4.3-2.9-8.7-4-13.1c0-0.1,0-0.1,0-0.2c-0.5-1.9-0.9-3.9-1.3-5.9
	c-0.1-0.4-0.2-0.9-0.2-1.3c-0.4-2-0.7-4.1-1-6.1c-3.5-25.5-2-52-10.8-76.2c-12.2-33.8-44.4-58.7-79.7-65.4c-2.1-0.4-4.2-0.7-6.3-1
	c-0.7-0.1-1.4-0.2-2.2-0.2c-1.3-0.2-2.7-0.3-4-0.4c-0.9-0.1-1.7-0.1-2.6-0.1c-1.2-0.1-2.3-0.1-3.5-0.1c-1,0-1.9,0-2.8,0
	c-1,0-2.1,0-3.1,0.1c-1,0-2,0.1-3,0.2c-1,0.1-1.9,0.1-2.9,0.2c-1,0.1-2.1,0.2-3.1,0.3c-0.9,0.1-1.7,0.2-2.6,0.4
	c-1.1,0.2-2.2,0.3-3.3,0.5c-0.8,0.1-1.6,0.3-2.3,0.5c-1.2,0.2-2.3,0.5-3.5,0.8c-0.7,0.2-1.3,0.3-2,0.5c-1.2,0.3-2.5,0.7-3.7,1
	c-0.5,0.2-1,0.3-1.5,0.5c-1.4,0.4-2.8,0.9-4.1,1.4c-0.2,0.1-0.4,0.1-0.6,0.2c-13,4.7-25.4,11.8-37.5,20.8c3.1-0.9,6.2-1.7,9.3-2.2
	c1.1-0.2,2.3-0.3,3.4-0.4c0.4-0.1,0.9-0.1,1.3-0.2c1.1-0.1,2.1-0.2,3.2-0.2c0.5,0,1.1-0.1,1.6-0.1c1,0,2,0,3.1,0c0.6,0,1.2,0,1.7,0
	c1,0,2,0.1,3,0.2c0.6,0,1.2,0.1,1.8,0.2c1,0.1,1.9,0.2,2.9,0.3c0.6,0.1,1.2,0.2,1.9,0.3c0.9,0.2,1.9,0.3,2.8,0.5
	c0.6,0.1,1.3,0.3,1.9,0.4c1.6,0.4,3.2,0.8,4.7,1.3c0.8,0.2,1.6,0.4,2.3,0.7c0.7,0.2,1.4,0.5,2.1,0.8c0.8,0.3,1.6,0.6,2.4,0.9
	c0.7,0.3,1.3,0.6,2,0.9c0.8,0.4,1.6,0.7,2.4,1.1c0.7,0.3,1.3,0.7,1.9,1c0.8,0.4,1.6,0.8,2.3,1.3c0.6,0.4,1.2,0.7,1.8,1.1
	c0.8,0.5,1.5,1,2.3,1.5c0.6,0.4,1.1,0.8,1.7,1.2c0.8,0.6,1.5,1.2,2.3,1.8c0.5,0.4,1,0.8,1.5,1.2c0.8,0.7,1.6,1.4,2.4,2.1
	c0.4,0.4,0.8,0.7,1.2,1.1c1.1,1.1,2.3,2.3,3.3,3.5s2,2.4,2.9,3.6c0.3,0.4,0.5,0.8,0.8,1.2c0.6,0.9,1.2,1.8,1.8,2.7
	c0.3,0.4,0.5,0.9,0.8,1.3c0.6,1.1,1.2,2.1,1.8,3.2c0.1,0.3,0.3,0.5,0.4,0.8c0.7,1.3,1.3,2.7,1.8,4c0.2,0.5,0.4,1.1,0.6,1.6
	c0.3,0.9,0.7,1.8,1,2.7c0.2,0.6,0.4,1.3,0.6,1.9c0.3,0.8,0.5,1.7,0.7,2.6c0.2,0.6,0.4,1.3,0.5,1.9c0.3,1.3,0.6,2.6,0.8,4
	c0.1,0.8,0.2,1.6,0.4,2.4c0.1,0.6,0.2,1.3,0.2,1.9c0.1,0.9,0.2,1.8,0.2,2.6c0,0.6,0.1,1.1,0.1,1.7c0.1,3.2,0,6.5-0.3,9.7
	c0,0.4-0.1,0.8-0.1,1.2c-0.1,1-0.3,2-0.4,3c-0.1,0.4-0.2,0.8-0.2,1.2c-0.2,1-0.4,2-0.6,3l0,0c-1.5,6.2-4,12.2-7.6,17.7
	c-14.9,22.8-47.2,32.9-71.8,21.2c-24.6-11.7-40.7-47.3-28.8-71.8c0,0-15.6,29.5-17.3,62.6l0,0c-0.1,1.2-0.1,2.5-0.1,3.7
	c0,0.7,0,1.5,0,2.2s0,1.5,0,2.2s0,1.5,0.1,2.2c0,0.8,0.1,1.7,0.1,2.5c0,0.6,0.1,1.3,0.1,1.9c0.1,1.4,0.3,2.7,0.4,4.1
	c0.1,0.6,0.2,1.2,0.3,1.8c0.1,0.9,0.3,1.8,0.5,2.8c0.1,0.6,0.2,1.2,0.3,1.8c0.2,1.1,0.5,2.1,0.7,3.2c0.1,0.4,0.2,0.8,0.3,1.2
	c0.4,1.4,0.8,2.8,1.3,4.2c0.2,0.5,0.3,0.9,0.5,1.4c0.4,1,0.7,2,1.2,3c0.2,0.5,0.4,0.9,0.6,1.4c0.5,1.2,1.1,2.5,1.7,3.7
	c0.1,0.2,0.2,0.3,0.2,0.5c0.7,1.4,1.5,2.7,2.3,4.1c0.2,0.4,0.5,0.8,0.8,1.2c0.6,1,1.3,2,2,3c0.3,0.4,0.6,0.8,0.9,1.2
	c1,1.3,2,2.6,3.1,3.9c16.8,19.1,64.6,55,19.1,93.3c-0.8,0.7-1.7,1.4-2.5,2c-0.3,0.2-0.6,0.4-0.9,0.6c-0.6,0.4-1.1,0.8-1.7,1.1
	c-0.3,0.2-0.7,0.4-1,0.6c-0.5,0.3-1.1,0.6-1.6,0.9c-0.4,0.2-0.7,0.3-1.1,0.5c-0.5,0.2-1,0.5-1.5,0.7c-0.4,0.2-0.8,0.3-1.2,0.4
	c-0.5,0.2-1,0.4-1.5,0.5c-0.4,0.1-0.8,0.2-1.2,0.3c-0.5,0.1-1,0.3-1.5,0.4c-0.4,0.1-0.8,0.1-1.3,0.2s-1,0.2-1.5,0.2
	c-0.4,0-0.9,0.1-1.3,0.1c-0.5,0-1,0.1-1.5,0.1c-0.4,0-0.9,0-1.3,0c-0.5,0-1,0-1.5,0c-0.4,0-0.9-0.1-1.3-0.1c-0.5-0.1-1-0.1-1.5-0.2
	c-0.4-0.1-0.9-0.2-1.3-0.2c-0.5-0.1-1-0.2-1.5-0.3c-0.5-0.1-0.9-0.2-1.4-0.3c-0.5-0.1-1-0.2-1.5-0.4c-0.5-0.1-0.9-0.3-1.4-0.4
	c-0.5-0.2-1-0.3-1.5-0.5s-0.9-0.4-1.4-0.6s-1-0.4-1.5-0.6s-0.9-0.4-1.4-0.7c-0.5-0.2-1-0.5-1.4-0.7c-0.5-0.2-0.9-0.5-1.4-0.8
	s-1-0.5-1.4-0.8c-0.5-0.3-0.9-0.6-1.4-0.9s-0.9-0.6-1.4-0.9s-0.9-0.6-1.4-1c-0.5-0.3-0.9-0.6-1.4-1c-0.5-0.3-0.9-0.7-1.4-1.1
	c-0.5-0.3-0.9-0.7-1.4-1.1s-1-0.8-1.4-1.2c-0.4-0.4-0.9-0.7-1.3-1.1c-0.5-0.4-1-0.8-1.4-1.3c-0.4-0.4-0.9-0.8-1.3-1.2
	c-0.5-0.4-1-0.9-1.4-1.4c-0.4-0.4-0.9-0.8-1.3-1.3c-0.5-0.5-0.9-1-1.4-1.5c-0.4-0.4-0.8-0.9-1.3-1.3c-0.5-0.5-0.9-1-1.4-1.6
	c-0.4-0.5-0.8-0.9-1.2-1.4c-0.5-0.5-0.9-1.1-1.4-1.7c-0.4-0.5-0.8-0.9-1.2-1.4c-0.5-0.6-0.9-1.2-1.4-1.8c-0.4-0.5-0.8-1-1.1-1.5
	c-0.5-0.6-0.9-1.2-1.4-1.9c-0.4-0.5-0.7-1-1.1-1.5c-0.5-0.6-0.9-1.3-1.4-2c-0.4-0.5-0.7-1-1.1-1.5c-0.5-0.7-0.9-1.4-1.4-2.1
	c-0.3-0.5-0.7-1-1-1.5c-0.5-0.7-0.9-1.5-1.4-2.2c-0.3-0.5-0.6-1-0.9-1.6c-0.5-0.8-0.9-1.5-1.4-2.3c-0.3-0.5-0.6-1-0.9-1.6
	c-0.4-0.8-0.9-1.6-1.3-2.4c-0.3-0.5-0.6-1.1-0.9-1.6c-0.4-0.8-0.9-1.6-1.3-2.5c-0.3-0.5-0.5-1.1-0.8-1.6c-0.4-0.9-0.9-1.7-1.3-2.6
	c-0.3-0.5-0.5-1.1-0.8-1.6c-0.4-0.9-0.8-1.8-1.3-2.7c-0.2-0.5-0.5-1-0.7-1.6c-0.4-0.9-0.8-1.8-1.2-2.8c-0.2-0.5-0.4-1-0.7-1.6
	c-0.4-1-0.8-1.9-1.2-2.9c-0.2-0.5-0.4-1-0.6-1.5c-0.4-1-0.8-2-1.2-3c-0.2-0.5-0.4-1-0.5-1.5c-0.4-1-0.8-2.1-1.1-3.1
	c-0.2-0.5-0.3-1-0.5-1.5c-0.4-1.1-0.7-2.1-1.1-3.2c-0.2-0.5-0.3-0.9-0.4-1.4c-0.3-1.1-0.7-2.2-1-3.3c-0.1-0.5-0.3-0.9-0.4-1.4
	c-0.3-1.1-0.7-2.3-1-3.4c-0.1-0.4-0.2-0.8-0.3-1.3c-0.3-1.2-0.6-2.4-0.9-3.6c-0.1-0.4-0.2-0.8-0.3-1.2c-0.3-1.2-0.6-2.5-0.8-3.7
	c-0.1-0.4-0.2-0.8-0.2-1.1c-0.3-1.3-0.5-2.5-0.8-3.8c-0.1-0.3-0.1-0.7-0.2-1c-0.2-1.3-0.5-2.6-0.7-3.9c-0.1-0.3-0.1-0.6-0.1-0.9
	c-0.2-1.3-0.4-2.7-0.6-4.1c0-0.3-0.1-0.5-0.1-0.8c-0.2-1.4-0.4-2.8-0.5-4.2c0-0.2,0-0.4-0.1-0.7c-0.2-1.5-0.3-2.9-0.4-4.4
	c0-0.1,0-0.3,0-0.4c-0.1-1.5-0.2-3.1-0.3-4.6c0-0.1,0-0.1,0-0.2c-1.3-23.4,1.8-47.2,11.2-68.9l0,0l0,0l0,0l0,0
	c-1.7,3.9-3.3,7.8-4.9,11.8c-0.1,0.2-0.1,0.3-0.2,0.5c-1.5,3.9-2.9,7.8-4.2,11.7c-0.1,0.3-0.2,0.6-0.3,0.9
	c-1.3,3.9-2.4,7.8-3.5,11.7c-0.1,0.4-0.2,0.8-0.3,1.1c-1,3.9-2,7.8-2.9,11.8c-0.1,0.4-0.2,0.9-0.3,1.3c-0.8,3.9-1.6,7.9-2.2,11.9
	c-0.1,0.4-0.1,0.9-0.2,1.3c-0.6,4-1.2,8.1-1.6,12.2c0,0.4-0.1,0.8-0.1,1.2c-0.4,4.2-0.8,8.4-1,12.6c0,0.3,0,0.5,0,0.8
	c-0.2,4.4-0.4,8.8-0.4,13.2c0,3.6,0.1,7.2,0.3,10.8c1.7,41,13.1,79,32,112c3.2,6.2,6.6,12.3,10.1,18.3c5.8,9.9,15,20.3,26.6,30.5
	c45.2,46.7,108.8,75.7,179.7,77.6c2.5,0.1,4.9,0.2,7.3,0.2c141.4,0,255.9-108,256-249.4C512.1,136.8,442.5,42.3,342.8,6.9z"/>
<path class="st1" d="M468,391.4c0.4-0.5,0.7-1.1,1.1-1.6c1.7-2.5,3.3-5.1,4.9-7.7c0.7-1.1,1.3-2.2,2-3.3c1.3-2.2,2.6-4.4,3.8-6.7
	c0.6-1.1,1.2-2.1,1.8-3.2c1.7-3.2,3.4-6.4,5-9.7c0.2-0.5,0.4-1,0.7-1.5c1.4-2.9,2.7-5.8,4-8.7c0.5-1.1,1-2.3,1.4-3.4
	c1-2.4,2-4.9,2.9-7.4c0.4-1.1,0.8-2.2,1.3-3.3c1.3-3.5,2.5-7,3.6-10.6c0.1-0.3,0.2-0.7,0.3-1.1c1-3.3,1.9-6.6,2.8-9.9
	c0.3-1.2,0.6-2.3,0.9-3.5c0.7-2.7,1.3-5.4,1.9-8.1c0.2-1.1,0.5-2.3,0.7-3.4c0.7-3.7,1.4-7.5,2-11.3c0-0.2,0-0.3,0.1-0.5
	c0.6-3.7,1-7.3,1.4-11c0.1-1.2,0.2-2.3,0.3-3.5c0.3-2.9,0.5-5.7,0.7-8.6c0.1-1.2,0.1-2.3,0.2-3.5c0.2-3.9,0.3-7.9,0.3-11.9
	c0-42.8-10.2-83.1-28.6-118.6c10.6,33.6-13,63.6-39.6,69.5c-34.9,7.8-81.2-32.1-79.4-67.8c-10.7,20,0.2,45,14.7,62.5
	s33,32.9,40.4,54.4c0.5,1.4,0.9,2.9,1.3,4.3c0.1,0.5,0.2,1,0.3,1.5c0.2,1,0.4,1.9,0.6,2.9c0.1,0.6,0.2,1.3,0.3,1.9
	c0.1,0.8,0.2,1.7,0.3,2.6c0.1,0.7,0.1,1.4,0.1,2.1c0,0.8,0.1,1.6,0.1,2.3c0,0.8,0,1.5,0,2.3c0,0.7-0.1,1.4-0.1,2.1
	c-0.1,0.8-0.1,1.6-0.2,2.5c-0.1,0.6-0.2,1.2-0.3,1.8c-0.1,0.9-0.3,1.8-0.5,2.7c-0.1,0.4-0.2,0.9-0.3,1.3c-0.2,1-0.5,2.1-0.8,3.1
	c0,0.1-0.1,0.2-0.1,0.2c-2,6.6-5.2,12.8-9.6,18.1l0,0c-0.9,1-1.8,2-2.8,3l-0.1,0.1c-1,0.9-2,1.8-3,2.7l-0.1,0.1
	c-1.1,0.9-2.2,1.7-3.3,2.5c-2.2,1.5-4.6,2.8-7.1,3.9c-14.4,6-32.3,3.5-43.9-6.9c-17.5-15.6-18.1-41.4-19.1-63
	c-0.1-2.4-0.2-4.8-0.3-7.2l0,0c-0.1-2.2-0.2-4.5-0.3-6.7c0-0.7-0.1-1.3-0.1-2c-0.1-1.7-0.2-3.3-0.3-5c-0.1-0.8-0.1-1.7-0.2-2.5
	c-0.1-1.5-0.2-3-0.3-4.5c-0.1-0.9-0.2-1.9-0.2-2.8c-0.1-1.4-0.2-2.8-0.4-4.2c-0.1-1-0.2-2-0.3-3c-0.1-1.3-0.3-2.7-0.5-4
	c-0.1-1-0.3-2-0.4-3.1c-0.2-1.3-0.4-2.6-0.6-3.9c-0.2-1-0.3-2.1-0.5-3.1c-0.2-1.3-0.5-2.5-0.7-3.8c-0.2-1-0.4-2.1-0.7-3.1
	c-0.3-1.2-0.6-2.5-0.9-3.7c-0.3-1-0.5-2-0.8-3c-0.3-1.2-0.7-2.4-1.1-3.7c-0.3-1-0.6-2-0.9-3c-0.4-1.2-0.8-2.4-1.3-3.6
	c-0.4-1-0.7-1.9-1.1-2.9c-0.5-1.2-1-2.4-1.5-3.5c-0.4-0.9-0.8-1.8-1.3-2.8c-0.6-1.2-1.2-2.3-1.8-3.5c-0.5-0.9-0.9-1.7-1.4-2.6
	c-0.7-1.2-1.5-2.3-2.2-3.5c-0.5-0.8-1-1.6-1.5-2.3c-0.9-1.3-1.9-2.5-2.8-3.7c-0.5-0.6-0.9-1.3-1.4-1.9c-1.5-1.8-3.1-3.6-4.8-5.3
	c-8-8-19.9-14-31.7-16.3c-2.9-0.6-5.8-0.9-8.7-1c-4.3-0.1-8.3,0.3-12,1.4s-6.9,2.9-9.6,5.4l0,0l0,0c1.7-0.9,3.5-1.3,5.3-1.3
	c4.5-0.1,9,2.2,13,5.6c0.8,0.7,1.6,1.4,2.4,2.2c6.2,6,11.2,14.3,13,19.7c0.5,1.4,0.8,2.8,1.1,4.3c0.1,0.5,0.2,0.9,0.2,1.4
	c0.2,1,0.3,2,0.4,3c0.1,0.5,0.1,1.1,0.1,1.6c0.1,1,0.1,1.9,0.1,2.9c0,0.5,0,1,0,1.5c0,1.2-0.2,2.4-0.3,3.6c0,0.3,0,0.5-0.1,0.8
	c-0.2,1.4-0.5,2.8-0.8,4.2c-0.1,0.5-0.3,1.1-0.4,1.6c-0.2,0.9-0.5,1.8-0.8,2.6c-0.2,0.6-0.4,1.1-0.6,1.7c-1.1,2.7-2.4,5.3-4,7.7
	c-8.3,12.4-23.5,21.3-25.4,36.1c-1.6,12,6.4,22.9,13,33c6.7,10.1,12.5,23.1,6.9,33.8c-4.7,8.9-15.9,12.6-25.9,12.2
	c-21.9-1-38.5-12.5-47.7-31.1c-6.2-12.4-2.2-28,4.1-39.7c-13.7,8.5-17.7,37.3-11,52c6.5,14.3,15.9,26.9,26.5,38.4
	c10.7,11.5,23.5,21.1,32.4,34.3c4,5.9,6.8,12.4,8.3,19.2c0.3,1.3,0.5,2.5,0.7,3.8c0,0.2,0.1,0.5,0.1,0.7c0.1,1.1,0.2,2.2,0.3,3.2
	c0,0.3,0,0.5,0,0.8c0,1.2,0,2.3,0,3.5c0,0.2,0,0.3,0,0.5c-0.1,1.3-0.2,2.7-0.4,4c0,0.1,0,0.1,0,0.2c-0.2,1.2-0.4,2.4-0.7,3.6
	c-0.1,0.4-0.2,0.7-0.3,1.1c-0.2,0.9-0.5,1.8-0.8,2.6c-0.1,0.4-0.3,0.8-0.4,1.2c-0.3,0.9-0.7,1.7-1,2.6c-0.2,0.4-0.3,0.7-0.5,1.1
	c-0.6,1.2-1.2,2.4-1.9,3.5c-2.5,4.2-5.8,8-9.6,11.1c-2.3,1.9-4.7,3.6-7.3,5c-0.9,0.5-1.7,0.9-2.6,1.3c-5.4,2.5-11.2,4-17.1,4.3
	c-1,0-2,0.1-3,0c-19.1-0.5-36.1-13.2-47-28.9c-10.9-15.6-16.9-34.1-23.5-52c-6.7-18.3-14.4-37.5-29-50.9
	c-13.3-12.2-31.3-25.5-49.9-15.9c11.4,3,20.3,11,26.7,21.1c4.9,7.9,8.3,17,10.1,26c1.9,9.4,2.8,23,4,37.4c0.3,2.9,0.5,5.8,0.8,8.8
	c0.9,8.8,2,17.7,3.8,26c0.3,1.4,0.6,2.8,0.9,4.1c1,4,2.1,7.9,3.4,11.5c4.5,12,11.2,21.1,21.6,24.1c-12-2.4-43.1-4.8-83.3-51.5
	c45.8,69.3,124.4,115,213.7,115c4.1,0,8.2-0.1,12.2-0.3c0.5,0,1,0,1.5-0.1c3.8-0.2,7.6-0.5,11.4-0.9c0.7-0.1,1.4-0.1,2.1-0.2
	c3.7-0.4,7.3-0.8,10.9-1.4c0.7-0.1,1.5-0.2,2.2-0.3c3.6-0.6,7.2-1.2,10.7-1.9c0.7-0.1,1.3-0.3,2-0.4c3.5-0.7,7-1.5,10.5-2.4
	c0.5-0.1,1-0.3,1.4-0.4c3.3-0.9,6.6-1.8,9.8-2.8c0.7-0.2,1.5-0.4,2.2-0.7c3.2-1,6.5-2.1,9.6-3.3c0.9-0.3,1.8-0.6,2.7-1
	c3.1-1.1,6.1-2.4,9.2-3.6c0.9-0.4,1.9-0.8,2.8-1.2c2.8-1.2,5.6-2.5,8.4-3.8l0,0c41.5-19.7,76.9-50.2,102.5-87.9l0,0
	C468,391.5,468,391.5,468,391.4z"/>
</svg>
